<svg width="47" height="47" viewBox="0 0 47 47" fill="none" xmlns="http://www.w3.org/2000/svg">
<path d="M29.4113 37.4984H16.7184C16.0451 37.4984 15.3994 37.231 14.9234 36.7549C14.4473 36.2788 14.1798 35.6331 14.1798 34.9599V18.4591H11.6413V15.9205H16.7184V14.6512C16.7184 13.9779 16.9859 13.3322 17.4619 12.8562C17.938 12.3801 18.5837 12.1126 19.257 12.1126H26.8727C27.546 12.1126 28.1917 12.3801 28.6678 12.8562C29.1439 13.3322 29.4113 13.9779 29.4113 14.6512V15.9205H34.4885V18.4591H31.9499V34.9599C31.9499 35.6331 31.6824 36.2788 31.2064 36.7549C30.7303 37.231 30.0846 37.4984 29.4113 37.4984ZM16.7184 18.4591V34.9599H29.4113V18.4591H16.7184ZM19.257 14.6512V15.9205H26.8727V14.6512H19.257ZM26.8727 32.4213H24.3342V20.9977H26.8727V32.4213ZM21.7956 32.4213H19.257V20.9977H21.7956V32.4213Z" fill="#5B9B32"/>
<rect x="1" y="1" width="45" height="45" rx="7" stroke="#5B9B32" stroke-width="2"/>
</svg>
